<svg id="zaYDGa.tif" xmlns="http://www.w3.org/2000/svg" width="26.426" height="34.224" viewBox="0 0 26.426 34.224">
  <g id="Group_3" data-name="Group 3" transform="translate(0 0)">
    <path id="Path_8" data-name="Path 8" d="M.009.008,1.484,0V10.8l-1.475,0,.005.007C.009,10.724,0,10.645,0,10.567Q0,5.413,0,.26C0,.173.01.087.015,0Z" transform="translate(24.942 14.12)"/>
    <path id="Path_9" data-name="Path 9" d="M3,0,3,1.476,3,1.47H0l.008.006Q.006.738.005,0Z" transform="translate(7.778 0)"/>
    <path id="Path_10" data-name="Path 10" d="M15.644,0c.006.063.018.125.018.188q0,2.246,0,4.491c0,.047-.005.094-.009.16H.023V4.563q0-2.138,0-4.277C.022.192.011.1,0,0L0,.008H1.527V3.361H13.8V.009h1.851Z" transform="translate(7.78 29.385)"/>
    <path id="Path_11" data-name="Path 11" d="M0,14.182H1.468V.006H2.954L2.946,0c.008.094.024.188.024.282q0,9.78,0,19.561V20.1h-1.5V15.645H.006V14.174Z" transform="translate(4.833 1.47)"/>
    <path id="Path_12" data-name="Path 12" d="M1.46,4.439H0V0H4.833V1.5l.006-.008H1.469c0,.2,0,.368,0,.533q-.007,1.21-.014,2.42Z" transform="translate(0 14.153)"/>
    <path id="Path_13" data-name="Path 13" d="M1.526,0q-.005,2.089-.011,4.179c0,.093,0,.186,0,.289H0l.009.009V.007H1.531Z" transform="translate(23.425 24.917)"/>
    <path id="Path_14" data-name="Path 14" d="M1.872,3.326H.02A.7.7,0,0,1,0,3.223Q0,1.658,0,.093A.605.605,0,0,1,.015,0L.009,0H1.863V3.334Z" transform="translate(2.969 20.116)"/>
    <path id="Path_15" data-name="Path 15" d="M1.48,3H.008V0L0,.008H1.473v3Z" transform="translate(4.832 23.442)"/>
    <path id="Path_16" data-name="Path 16" d="M1.48,2.948H.007V0L0,.008H1.5c0,.733,0,1.45,0,2.168,0,.26-.014.519-.022.779Z" transform="translate(6.305 26.44)"/>
    <path id="Path_17" data-name="Path 17" d="M1.529,1.525H.005V0L0,.007H1.523V1.53Z" transform="translate(1.455 18.591)"/>
    <path id="Path_18" data-name="Path 18" d="M0,.005H1.491V6.336H4.85V7.857l.008-.009H1.487v6.3H.007V0Z" transform="translate(10.776 1.47)"/>
    <path id="Path_19" data-name="Path 19" d="M0,.019C.078.013.156,0,.235,0Q2.226,0,4.217,0c.077,0,.154.007.255.012V1.491l.008-.007h-3V6.314H.008V.01Z" transform="translate(15.626 9.309)"/>
    <path id="Path_20" data-name="Path 20" d="M0,.007H3.329V1.479l.007-.005H1.472V6.311H.008V0Z" transform="translate(20.097 10.793)"/>
    <path id="Path_21" data-name="Path 21" d="M0,.005H1.525V1.861l.006-.008H.007V0Z" transform="translate(23.426 12.267)"/>
    <path id="Path_22" data-name="Path 22" d="M21.978,10.8V12.65H23.5c-.005.087-.015.173-.015.26q0,5.153,0,10.306c0,.079.009.158.014.236H21.979v4.471H20.127v3.352H7.853V27.924H6.326c.008-.259.021-.519.022-.779,0-.717,0-1.435,0-2.168h-1.5v-3H3.377V18.651H1.523V17.128H0q.007-1.21.014-2.42c0-.166,0-.331,0-.533H3.383v1.471H4.847V20.1h1.5v-.257q0-9.781,0-19.561c0-.094-.016-.188-.024-.282h3V14.152h1.48v-6.3H14.18v6.3h1.469V9.323h3v6.311h1.465V10.8Z" transform="translate(1.455 1.47)" fill="#dbb98e"/>
  </g>
</svg>
