<svg width="48" height="48" viewBox="0 0 48 48" fill="none" xmlns="http://www.w3.org/2000/svg">
<path d="M36.53 9.38H7.53003C6.43003 9.38 5.53003 10.28 5.53003 11.38V17.38C5.53003 18.48 6.43003 19.38 7.53003 19.38H36.53C37.63 19.38 38.53 18.48 38.53 17.38V11.38C38.53 10.28 37.63 9.38 36.53 9.38ZM11.53 16.38C10.43 16.38 9.53003 15.48 9.53003 14.38C9.53003 13.28 10.43 12.38 11.53 12.38C12.63 12.38 13.53 13.28 13.53 14.38C13.53 15.48 12.63 16.38 11.53 16.38ZM18.53 16.38C17.43 16.38 16.53 15.48 16.53 14.38C16.53 13.28 17.43 12.38 18.53 12.38C19.63 12.38 20.53 13.28 20.53 14.38C20.53 15.48 19.63 16.38 18.53 16.38ZM34.03 15.63H26.03C25.34 15.63 24.78 15.07 24.78 14.38C24.78 13.69 25.34 13.13 26.03 13.13H34.03C34.72 13.13 35.28 13.69 35.28 14.38C35.28 15.07 34.72 15.63 34.03 15.63ZM5.53003 24.38V30.38C5.53003 31.48 6.43003 32.38 7.53003 32.38H23.64C23.57 31.89 23.53 31.39 23.53 30.91C23.53 30.37 23.57 29.81 23.66 29.26C23.81 28.25 24.49 27.42 25.39 27.04C25.03 26.13 25.14 25.05 25.75 24.23C26.26 23.54 26.87 22.94 27.52 22.38H7.53003C6.43003 22.38 5.53003 23.28 5.53003 24.38ZM18.53 25.38C19.63 25.38 20.53 26.28 20.53 27.38C20.53 28.48 19.63 29.38 18.53 29.38C17.43 29.38 16.53 28.48 16.53 27.38C16.53 26.28 17.43 25.38 18.53 25.38ZM11.53 25.38C12.63 25.38 13.53 26.28 13.53 27.38C13.53 28.48 12.63 29.38 11.53 29.38C10.43 29.38 9.53003 28.48 9.53003 27.38C9.53003 26.28 10.43 25.38 11.53 25.38Z" fill="white"/>
<path d="M43.37 29.63C43.34 29.44 43.17 29.3 42.97 29.3H42.15C41.89 29.22 41.68 29.02 41.59 28.75C41.44 28.27 41.23 27.81 40.98 27.38C40.89 27.22 40.91 27.03 41.04 26.9L41.7 26.24C41.84 26.1 41.86 25.88 41.74 25.72C41.24 25.04 40.64 24.44 39.96 23.94C39.89 23.89 39.81 23.86 39.73 23.86C39.62 23.86 39.52 23.9 39.44 23.98L38.78 24.64C38.7 24.72 38.61 24.75 38.51 24.75C38.44 24.75 38.37 24.73 38.31 24.7C37.71 24.35 37.05 24.09 36.35 23.93V22.69C36.35 22.49 36.21 22.32 36.01 22.29C35.6 22.23 35.18 22.19 34.75 22.19C34.32 22.19 33.9 22.22 33.49 22.29C33.3 22.32 33.15 22.49 33.15 22.69V23.93C32.45 24.09 31.79 24.35 31.19 24.7C31.13 24.74 31.06 24.75 30.99 24.75C30.89 24.75 30.79 24.71 30.72 24.64L30.06 23.98C29.98 23.9 29.88 23.86 29.77 23.86C29.69 23.86 29.61 23.89 29.54 23.94C28.87 24.44 28.27 25.04 27.76 25.72C27.64 25.88 27.66 26.1 27.8 26.24L28.46 26.9C28.59 27.03 28.61 27.22 28.52 27.38C28.27 27.81 28.07 28.27 27.91 28.75C27.82 29.02 27.61 29.23 27.35 29.3H26.53C26.33 29.3 26.16 29.44 26.13 29.63C26.07 30.05 26.03 30.47 26.03 30.91C26.03 31.35 26.07 31.77 26.13 32.19C26.16 32.38 26.33 32.52 26.53 32.52H27.35C27.61 32.6 27.82 32.8 27.91 33.07C28.06 33.55 28.27 34.01 28.52 34.44C28.61 34.6 28.59 34.79 28.46 34.92L27.8 35.58C27.66 35.72 27.64 35.94 27.76 36.1C28.26 36.78 28.86 37.38 29.54 37.88C29.61 37.93 29.69 37.96 29.77 37.96C29.88 37.96 29.98 37.92 30.06 37.84L30.72 37.18C30.8 37.1 30.89 37.07 30.99 37.07C31.06 37.07 31.13 37.09 31.19 37.12C31.79 37.47 32.45 37.73 33.15 37.89V39.13C33.15 39.33 33.29 39.5 33.49 39.53C33.9 39.59 34.32 39.63 34.75 39.63C35.18 39.63 35.6 39.6 36.01 39.53C36.2 39.5 36.35 39.33 36.35 39.13V37.89C37.05 37.73 37.71 37.47 38.31 37.12C38.37 37.08 38.44 37.07 38.51 37.07C38.61 37.07 38.71 37.11 38.78 37.18L39.44 37.84C39.52 37.92 39.62 37.96 39.73 37.96C39.81 37.96 39.89 37.93 39.96 37.88C40.63 37.38 41.23 36.78 41.74 36.1C41.86 35.94 41.84 35.72 41.7 35.58L41.04 34.92C40.91 34.79 40.89 34.6 40.98 34.44C41.23 34.01 41.43 33.55 41.59 33.07C41.68 32.8 41.89 32.59 42.15 32.52H42.97C43.17 32.52 43.34 32.38 43.37 32.19C43.43 31.77 43.47 31.35 43.47 30.91C43.47 30.47 43.43 30.05 43.37 29.63ZM37.12 31.29C36.97 32.3 36.14 33.12 35.14 33.27C35.01 33.29 34.89 33.3 34.76 33.3C33.32 33.3 32.17 32.02 32.4 30.53C32.55 29.52 33.38 28.7 34.38 28.55C34.51 28.53 34.63 28.52 34.76 28.52C36.2 28.52 37.35 29.8 37.12 31.29ZM23.25 35.38H9.53003C8.70003 35.38 8.03003 36.05 8.03003 36.88C8.03003 37.71 8.70003 38.38 9.53003 38.38H23.25C24.08 38.38 24.75 37.71 24.75 36.88C24.75 36.05 24.08 35.38 23.25 35.38Z" fill="white"/>
</svg>
