<svg width="48" height="48" viewBox="0 0 48 48" fill="none" xmlns="http://www.w3.org/2000/svg">
<path d="M41.59 27.9899C40.73 26.9099 39.17 26.7199 38.08 27.5699L31 33.1199C30.65 33.3999 30.21 33.5499 29.77 33.5499H24.7C24.01 33.5499 23.45 32.9999 23.45 32.3099C23.45 31.6199 24.01 31.0599 24.7 31.0599H28.95C30.33 31.0599 31.45 29.9299 31.45 28.5499C31.45 27.1699 30.33 26.0499 28.95 26.0499H19.22L18.56 26.0599C17.22 26.0599 15.91 26.5099 14.86 27.3399L11.39 30.0699C11.17 30.2399 11.13 30.5599 11.31 30.7699L18.05 39.2999C18.14 39.4199 18.29 39.4899 18.44 39.4899L28.86 39.5799C30.23 39.5899 31.56 39.1399 32.63 38.2899L41.2 31.5199C42.29 30.6599 42.47 29.0899 41.61 27.9999L41.59 27.9899Z" fill="white"/>
<path d="M9.33 32.3199C9.16 32.0999 8.84 32.0699 8.63 32.2399L7.06 33.4799C6.84 33.6499 6.81 33.9699 6.98 34.1799L13.56 42.5099C13.73 42.7299 14.05 42.7599 14.26 42.5899L15.83 41.3499C16.05 41.1799 16.08 40.8599 15.91 40.6499L9.33 32.3199ZM36.83 13.3699H35.6C35.37 13.2999 35.18 13.1199 35.1 12.8799C34.99 12.5399 34.85 12.1999 34.69 11.8899C34.55 11.6099 34.58 11.2699 34.8 11.0499L35.54 10.3099C35.82 10.0299 35.82 9.57995 35.54 9.30995L34.54 8.30995C34.26 8.02995 33.81 8.02995 33.54 8.30995L32.8 9.04995C32.58 9.26995 32.24 9.30995 31.96 9.15995C31.64 8.99995 31.31 8.85995 30.97 8.74995C30.67 8.64995 30.45 8.38995 30.45 8.06995V7.02995C30.45 6.63995 30.13 6.31995 29.74 6.31995H28.32C27.93 6.31995 27.61 6.63995 27.61 7.02995V8.06995C27.61 8.38995 27.39 8.65995 27.09 8.74995C26.75 8.85995 26.41 8.99995 26.1 9.15995C25.82 9.29995 25.48 9.26995 25.26 9.04995L24.52 8.30995C24.24 8.02995 23.79 8.02995 23.52 8.30995L22.52 9.30995C22.24 9.58995 22.24 10.0399 22.52 10.3099L23.26 11.0499C23.48 11.2699 23.52 11.6099 23.37 11.8899C23.21 12.2099 23.07 12.5399 22.96 12.8799C22.88 13.1199 22.7 13.2999 22.46 13.3699H21.23C20.84 13.3699 20.52 13.6899 20.52 14.0799V15.5299C20.52 15.9199 20.84 16.2399 21.23 16.2399H22.46C22.69 16.3099 22.88 16.4899 22.96 16.7299C23.07 17.0699 23.21 17.4099 23.37 17.7199C23.51 17.9999 23.48 18.3399 23.26 18.5599L22.52 19.2999C22.24 19.5799 22.24 20.0299 22.52 20.2999L23.52 21.2999C23.8 21.5799 24.25 21.5799 24.52 21.2999L25.26 20.5599C25.48 20.3399 25.82 20.2999 26.1 20.4499C26.42 20.6099 26.75 20.7499 27.09 20.8599C27.39 20.9599 27.61 21.2199 27.61 21.5399V22.5799C27.61 22.9699 27.93 23.2899 28.32 23.2899H29.74C30.13 23.2899 30.45 22.9699 30.45 22.5799V21.5399C30.45 21.2199 30.67 20.9499 30.97 20.8599C31.31 20.7499 31.65 20.6099 31.96 20.4499C32.24 20.3099 32.58 20.3399 32.8 20.5599L33.54 21.2999C33.82 21.5799 34.27 21.5799 34.54 21.2999L35.54 20.2999C35.82 20.0199 35.82 19.5699 35.54 19.2999L34.8 18.5599C34.58 18.3399 34.54 17.9999 34.69 17.7199C34.85 17.3999 34.99 17.0699 35.1 16.7299C35.18 16.4899 35.36 16.3099 35.6 16.2399H36.83C37.22 16.2399 37.54 15.9199 37.54 15.5299V14.0799C37.54 13.6899 37.22 13.3699 36.83 13.3699ZM29.02 17.7599C27.39 17.7599 26.06 16.4299 26.06 14.7999C26.06 13.1699 27.39 11.8399 29.02 11.8399C30.65 11.8399 31.98 13.1699 31.98 14.7999C31.98 16.4299 30.65 17.7599 29.02 17.7599Z" fill="white"/>
</svg>
