<svg width="48" height="48" viewBox="0 0 48 48" fill="none" xmlns="http://www.w3.org/2000/svg">
<path d="M18.17 34.88L13.47 37.57C13.29 37.67 13.17 37.87 13.17 38.08V43.42C13.17 43.87 13.66 44.15 14.05 43.93L18.75 41.24C18.93 41.14 19.05 40.94 19.05 40.73V35.39C19.05 34.94 18.56 34.66 18.17 34.88ZM10.53 37.56L5.82995 34.87C5.43995 34.65 4.94995 34.93 4.94995 35.38V40.72C4.94995 40.93 5.05995 41.13 5.24995 41.23L9.94995 43.92C10.34 44.14 10.83 43.86 10.83 43.41V38.07C10.83 37.86 10.72 37.66 10.53 37.56ZM16.96 31.84L12.29 29.17C12.11 29.07 11.89 29.07 11.71 29.17L7.03995 31.84C6.64995 32.07 6.64995 32.63 7.03995 32.86L11.71 35.53C11.89 35.63 12.11 35.63 12.29 35.53L16.96 32.86C17.35 32.63 17.35 32.07 16.96 31.84ZM43.1699 34.88L38.47 37.57C38.29 37.67 38.1699 37.87 38.1699 38.08V43.42C38.1699 43.87 38.6599 44.15 39.0499 43.93L43.75 41.24C43.93 41.14 44.0499 40.94 44.0499 40.73V35.39C44.0499 34.94 43.5599 34.66 43.1699 34.88ZM41.9599 31.84L37.29 29.17C37.11 29.07 36.8899 29.07 36.7099 29.17L32.04 31.84C31.65 32.07 31.65 32.63 32.04 32.86L36.7099 35.53C36.8899 35.63 37.11 35.63 37.29 35.53L41.9599 32.86C42.3499 32.63 42.3499 32.07 41.9599 31.84ZM35.5299 37.56L30.83 34.87C30.44 34.65 29.95 34.93 29.95 35.38V40.72C29.95 40.93 30.06 41.13 30.25 41.23L34.95 43.92C35.34 44.14 35.83 43.86 35.83 43.41V38.07C35.83 37.86 35.7199 37.66 35.5299 37.56Z" fill="white"/>
<path d="M25.18 4.99999C21.31 4.99999 18.18 6.56999 18.18 8.49999V11.83L18.45 12.17C19.25 13.17 21.7 14.26 25.18 14.26C28.66 14.26 31.2 13.17 31.97 12.09L32.18 11.79V8.48999C32.18 6.55999 29.05 4.98999 25.18 4.98999V4.99999ZM25.18 9.99999C22.97 9.99999 21.18 9.32999 21.18 8.49999C21.18 7.66999 22.97 6.99999 25.18 6.99999C27.39 6.99999 29.18 7.66999 29.18 8.49999C29.18 9.32999 27.39 9.99999 25.18 9.99999ZM29.3899 30.01L26.4 28.21V25.42C26.4 24.73 25.84 24.17 25.15 24.17C24.46 24.17 23.9 24.73 23.9 25.42V28.2L20.97 29.97C20.58 30.21 20.37 30.62 20.37 31.04C20.37 31.26 20.43 31.48 20.55 31.68C20.91 32.27 21.68 32.46 22.27 32.1L25.15 30.36L28.11 32.15C28.31 32.27 28.54 32.33 28.76 32.33C29.18 32.33 29.6 32.12 29.83 31.73C30.19 31.14 30 30.37 29.41 30.01H29.3899ZM18.18 15.13V18.41C18.18 18.41 18.18 18.44 18.18 18.45C18.18 18.47 18.18 18.49 18.18 18.51C18.18 20.44 21.31 22.01 25.18 22.01C29.05 22.01 32.18 20.44 32.18 18.51C32.18 18.49 32.18 18.47 32.18 18.45C32.18 18.44 32.18 18.42 32.18 18.41V15.12C30.44 16.15 27.94 16.77 25.18 16.77C22.42 16.77 19.92 16.16 18.18 15.13Z" fill="white"/>
</svg>
