<svg width="48" height="48" viewBox="0 0 48 48" fill="none" xmlns="http://www.w3.org/2000/svg">
<path d="M38 10.25V8.25C38 7.15 37.1 6.25 36 6.25H6C4.9 6.25 4 7.15 4 8.25V31.25C4 32.35 4.9 33.25 6 33.25H17.83L17.16 37.25H13.49C12.66 37.25 11.99 37.92 11.99 38.75C11.99 39.58 12.66 40.25 13.49 40.25H23.49V29.25H7.99V10.25H38ZM41 12.75H30C27.79 12.75 26 14.54 26 16.75V38.75C26 40.96 27.79 42.75 30 42.75H41C43.21 42.75 45 40.96 45 38.75V16.75C45 14.54 43.21 12.75 41 12.75ZM36.25 40.25H34.75C33.92 40.25 33.25 39.58 33.25 38.75C33.25 37.92 33.92 37.25 34.75 37.25H36.25C37.08 37.25 37.75 37.92 37.75 38.75C37.75 39.58 37.08 40.25 36.25 40.25ZM41.82 34.14C41.82 34.69 41.37 35.14 40.82 35.14H30.19C29.64 35.14 29.19 34.69 29.19 34.14V17.98C29.19 17.43 29.64 16.98 30.19 16.98H40.82C41.37 16.98 41.82 17.43 41.82 17.98V34.14Z" fill="white"/>
<path d="M22.26 14.25H21.13C20.82 14.25 20.57 14.5 20.57 14.81V15.64C20.57 15.89 20.4 16.11 20.15 16.18C19.88 16.27 19.61 16.38 19.36 16.51C19.14 16.62 18.87 16.6 18.69 16.42L18.1 15.83C17.88 15.61 17.52 15.61 17.3 15.83L16.5 16.63C16.28 16.85 16.28 17.21 16.5 17.43L17.09 18.02C17.27 18.2 17.29 18.46 17.18 18.69C17.05 18.94 16.94 19.2 16.85 19.48C16.77 19.72 16.56 19.9 16.31 19.9H15.48C15.17 19.9 14.92 20.15 14.92 20.46V21.59C14.92 21.9 15.17 22.15 15.48 22.15H16.31C16.56 22.15 16.78 22.32 16.85 22.57C16.94 22.84 17.05 23.11 17.18 23.36C17.3 23.58 17.27 23.85 17.09 24.03L16.5 24.62C16.28 24.84 16.28 25.2 16.5 25.42L17.3 26.22C17.52 26.44 17.88 26.44 18.1 26.22L18.69 25.63C18.87 25.45 19.13 25.43 19.36 25.54C19.61 25.67 19.87 25.78 20.15 25.87C20.39 25.95 20.57 26.16 20.57 26.41V27.24C20.57 27.55 20.82 27.8 21.13 27.8H22.26C22.57 27.8 22.82 27.55 22.82 27.24V23.62C22.47 23.77 22.09 23.86 21.69 23.86C20.13 23.86 18.87 22.6 18.87 21.04C18.87 19.48 20.13 18.22 21.69 18.22C22.09 18.22 22.47 18.31 22.82 18.46V14.84C22.82 14.53 22.57 14.28 22.26 14.28V14.25ZM38.26 24.89H37.43C37.18 24.89 36.96 24.72 36.89 24.47C36.8 24.2 36.69 23.93 36.56 23.68C36.44 23.46 36.47 23.19 36.65 23.01L37.24 22.42C37.46 22.2 37.46 21.84 37.24 21.62L36.44 20.82C36.22 20.6 35.86 20.6 35.64 20.82L35.05 21.41C34.87 21.59 34.61 21.61 34.38 21.5C34.13 21.37 33.87 21.26 33.59 21.17C33.35 21.09 33.17 20.88 33.17 20.63V19.8C33.17 19.49 32.92 19.24 32.61 19.24H31.48C31.17 19.24 30.92 19.49 30.92 19.8V23.42C31.27 23.27 31.65 23.18 32.05 23.18C33.61 23.18 34.87 24.44 34.87 26C34.87 27.56 33.61 28.82 32.05 28.82C31.65 28.82 31.27 28.73 30.92 28.58V32.2C30.92 32.51 31.17 32.76 31.48 32.76H32.61C32.92 32.76 33.17 32.51 33.17 32.2V31.37C33.17 31.12 33.34 30.9 33.59 30.83C33.86 30.74 34.13 30.63 34.38 30.5C34.6 30.38 34.87 30.41 35.05 30.59L35.64 31.18C35.86 31.4 36.22 31.4 36.44 31.18L37.24 30.38C37.46 30.16 37.46 29.8 37.24 29.58L36.65 28.99C36.47 28.81 36.45 28.55 36.56 28.32C36.69 28.07 36.8 27.81 36.89 27.53C36.97 27.29 37.18 27.11 37.43 27.11H38.26C38.57 27.11 38.82 26.86 38.82 26.55V25.42C38.82 25.11 38.57 24.86 38.26 24.86V24.89Z" fill="white"/>
</svg>
