<svg width="48" height="48" viewBox="0 0 48 48" fill="none" xmlns="http://www.w3.org/2000/svg">
<path d="M7.84008 22.81C7.94008 22.83 8.03008 22.84 8.12008 22.84C8.83008 22.84 9.45008 22.34 9.59008 21.62C9.65008 21.32 9.71008 21.03 9.79008 20.74C10.0001 19.94 9.51008 19.12 8.71008 18.91C7.91008 18.7 7.09008 19.19 6.88008 19.99C6.79008 20.34 6.71008 20.7 6.64008 21.06C6.48008 21.87 7.02008 22.66 7.83008 22.81H7.84008ZM9.64008 27.6C9.52008 27.04 9.44008 26.47 9.39008 25.91C9.31008 25.08 8.59008 24.48 7.76008 24.55C6.93008 24.63 6.33008 25.36 6.40008 26.18C6.46008 26.86 6.56008 27.54 6.70008 28.21C6.85008 28.92 7.47008 29.41 8.17008 29.41C8.27008 29.41 8.37008 29.4 8.48008 29.38C9.29008 29.21 9.81008 28.42 9.64008 27.61V27.6ZM37.8801 33.69L32.0801 34.83C31.6701 34.91 31.5201 35.42 31.8101 35.71L33.0801 36.98C27.8701 40.62 20.7301 40.56 15.5901 36.79C15.3401 36.61 15.1001 36.42 14.8701 36.23C14.2301 35.7 13.2901 35.79 12.7601 36.43C12.2301 37.07 12.3201 38.01 12.9601 38.54C13.2401 38.77 13.5201 38.99 13.8201 39.21C16.9601 41.52 20.7201 42.67 24.4901 42.67C28.2601 42.67 32.0101 41.52 35.1501 39.21C35.1801 39.19 35.2101 39.16 35.2401 39.14L36.4701 40.37C36.7701 40.67 37.2701 40.51 37.3501 40.1L38.4901 34.3C38.5601 33.94 38.2401 33.62 37.8801 33.69ZM11.0901 31.61C10.7001 30.88 9.79008 30.6 9.06008 30.99C8.33008 31.38 8.05008 32.29 8.44008 33.02C8.76008 33.62 9.12008 34.21 9.50008 34.77C9.79008 35.19 10.2601 35.42 10.7401 35.42C11.0301 35.42 11.3301 35.33 11.5901 35.16C12.2701 34.69 12.4501 33.76 11.9801 33.07C11.6601 32.6 11.3601 32.11 11.0901 31.61Z" fill="white"/>
<path d="M39.3801 21.63C39.4901 22.21 39.5701 22.79 39.6101 23.36C39.6701 24.15 40.3301 24.75 41.1001 24.75C41.1401 24.75 41.1701 24.75 41.2101 24.75C42.0401 24.69 42.6601 23.97 42.6001 23.14C42.5501 22.45 42.4601 21.75 42.3201 21.06C42.1601 20.25 41.3701 19.71 40.5601 19.87C39.7501 20.03 39.2101 20.81 39.3701 21.63H39.3801ZM35.1601 9.79C28.8901 5.19 20.1501 5.18 13.8701 9.77L12.5601 8.46C12.2601 8.16 11.7401 8.31 11.6601 8.74L10.4901 14.69C10.4201 15.06 10.7501 15.39 11.1201 15.32L17.0701 14.15C17.4901 14.07 17.6501 13.55 17.3501 13.25L16.0401 11.94C21.2401 8.39 28.3001 8.48 33.4001 12.22C33.6501 12.4 33.8901 12.59 34.1201 12.78C34.4001 13.01 34.7401 13.12 35.0701 13.12C35.5001 13.12 35.9301 12.93 36.2301 12.58C36.7601 11.94 36.6701 11 36.0301 10.47C35.7501 10.24 35.4701 10.02 35.1801 9.8L35.1601 9.79ZM41.0901 26.58C40.2801 26.41 39.4801 26.92 39.3101 27.73C39.2501 28.03 39.1701 28.32 39.0901 28.61C38.8701 29.41 39.3301 30.24 40.1301 30.46C40.2701 30.5 40.4001 30.52 40.5401 30.52C41.2001 30.52 41.8001 30.09 41.9801 29.42C42.0801 29.07 42.1701 28.72 42.2401 28.36C42.4201 27.55 41.9001 26.75 41.0901 26.58ZM39.9701 18.14C40.7101 17.76 40.9901 16.85 40.6101 16.12C40.2901 15.5 39.9301 14.89 39.5301 14.32C39.0701 13.63 38.1301 13.45 37.4501 13.92C36.7601 14.38 36.5901 15.32 37.0501 16C37.3801 16.48 37.6801 16.99 37.9501 17.5C38.2201 18.01 38.7401 18.31 39.2801 18.31C39.5101 18.31 39.7501 18.26 39.9701 18.14ZM24.6601 14.58C19.1401 14.58 14.6601 19.06 14.6601 24.58C14.6601 30.1 19.1401 34.58 24.6601 34.58C30.1801 34.58 34.6601 30.1 34.6601 24.58C34.6601 19.06 30.1801 14.58 24.6601 14.58ZM24.1101 22.66L26.4201 23.85C27.8001 24.56 28.5301 26.01 28.2801 27.56C28.0901 28.76 27.3301 29.71 26.2801 30.17V30.48C26.2801 31.26 25.6401 31.9 24.8601 31.9C24.0801 31.9 23.4401 31.26 23.4401 30.48V30.26C22.3301 29.89 21.4001 29.07 20.9101 27.95C20.6001 27.23 20.9301 26.39 21.6501 26.08C22.3701 25.77 23.2001 26.1 23.5201 26.82C23.7501 27.36 24.3101 27.69 24.8901 27.64C25.3301 27.57 25.4401 27.32 25.4801 27.12C25.5001 27 25.5301 26.6 25.1201 26.39L22.8101 25.2C21.4201 24.48 20.6801 22.96 20.9701 21.42C21.2201 20.06 22.1701 19.05 23.4501 18.7V18.49C23.4501 17.71 24.0901 17.07 24.8701 17.07C25.6501 17.07 26.2901 17.71 26.2901 18.49V19.01C27.1801 19.44 27.9001 20.16 28.3101 21.1C28.6201 21.82 28.2901 22.66 27.5701 22.97C26.8501 23.28 26.0101 22.95 25.7001 22.24C25.4601 21.7 24.9001 21.36 24.3301 21.42C23.9001 21.46 23.7901 21.77 23.7601 21.94C23.7301 22.09 23.7101 22.47 24.1101 22.68V22.66Z" fill="white"/>
</svg>
