<svg width="48" height="48" viewBox="0 0 48 48" fill="none" xmlns="http://www.w3.org/2000/svg">
<path d="M44.13 40.62L42.33 35.22C42.23 34.91 42.26 34.58 42.41 34.29C43.76 31.66 44.32 28.56 43.74 25.29C42.84 20.28 39.17 16.11 34.41 14.51C35.64 17.48 36.01 20.78 35.4 24.05C34.15 30.7 28.83 35.98 22.15 37.17C21.29 37.33 20.41 37.4 19.54 37.42C21.57 39.61 24.28 41.16 27.3 41.71C30.55 42.29 33.64 41.75 36.26 40.42C36.55 40.27 36.88 40.24 37.18 40.34L42.6 42.15C43.55 42.47 44.45 41.56 44.14 40.61L44.13 40.62Z" fill="white"/>
<path d="M16.41 7.02999C10.78 8.07999 6.27003 12.65 5.26003 18.29C4.67003 21.56 5.23003 24.66 6.59003 27.29C6.74003 27.58 6.77003 27.91 6.67003 28.22L4.87003 33.62C4.55003 34.57 5.46003 35.47 6.41003 35.16L11.83 33.35C12.14 33.25 12.46 33.28 12.75 33.43C15.37 34.76 18.46 35.3 21.71 34.72C27.33 33.71 31.89 29.21 32.95 23.6C34.8 13.71 26.31 5.19999 16.42 7.03999L16.41 7.02999ZM24.02 20.85L15.79 28.37C15.4 28.72 14.8 28.32 14.98 27.83L17 22.46C17.12 22.13 16.88 21.78 16.53 21.78H13.73C13.36 21.78 13.12 21.39 13.28 21.06L16.78 14.06C16.86 13.89 17.04 13.78 17.23 13.78H23.45C23.82 13.78 24.06 14.17 23.9 14.5L22.32 17.66C21.99 18.32 22.47 19.11 23.21 19.11H23.35C24.26 19.11 24.7 20.23 24.02 20.85Z" fill="white"/>
</svg>
