<svg width="48" height="48" viewBox="0 0 48 48" fill="none" xmlns="http://www.w3.org/2000/svg">
<path d="M23.77 34.16C22.47 34.33 21.11 34.43 19.7 34.43C15.39 34.43 11.4 33.57 8.45998 32.1C8.11998 31.93 7.72998 32.16 7.72998 32.54V35.08C7.72998 35.08 7.72998 35.12 7.72998 35.15C7.72998 35.18 7.72998 35.21 7.72998 35.24C7.72998 38.42 13.12 41 19.76 41C21.17 41 22.52 40.88 23.78 40.66C23.78 40.61 23.76 40.55 23.76 40.5V34.16H23.77ZM19.76 8C13.11 8 7.72998 10.58 7.72998 13.76V19.6C7.72998 19.76 7.79998 19.91 7.92998 20C10.39 21.86 14.85 23.05 19.71 23.05C24.57 23.05 29.19 21.8 31.62 19.9C31.74 19.8 31.81 19.66 31.81 19.5V13.76C31.81 10.58 26.42 8 19.78 8H19.76ZM19.76 16.24C16.12 16.24 13.17 15.13 13.17 13.77C13.17 12.41 16.12 11.3 19.76 11.3C23.4 11.3 26.35 12.41 26.35 13.77C26.35 15.13 23.4 16.24 19.76 16.24ZM8.45998 23.23C8.11998 23.06 7.72998 23.29 7.72998 23.67V28.47C7.72998 28.63 7.79998 28.78 7.92998 28.87C10.39 30.73 14.85 31.92 19.71 31.92C21.11 31.92 22.48 31.81 23.78 31.62V31.5C23.78 30.02 24.86 28.78 26.28 28.54V27.75C26.28 26.66 26.52 25.63 26.94 24.69C24.76 25.24 22.31 25.56 19.72 25.56C15.41 25.56 11.42 24.7 8.47998 23.23H8.45998Z" fill="white"/>
<path d="M40.77 31H38.77V27.75C38.77 24.99 36.53 22.75 33.77 22.75C31.01 22.75 28.77 24.99 28.77 27.75V31H26.77C26.49 31 26.27 31.22 26.27 31.5V40.5C26.27 40.78 26.49 41 26.77 41H40.77C41.05 41 41.27 40.78 41.27 40.5V31.5C41.27 31.22 41.05 31 40.77 31ZM36.27 31H31.27V27.75C31.27 26.37 32.39 25.25 33.77 25.25C35.15 25.25 36.27 26.37 36.27 27.75V31Z" fill="white"/>
</svg>
